<?xml version="1.0" encoding="utf-8"?>
<!-- Generator: Adobe Adobe Illustrator 29.2.0, SVG Export Plug-In . SVG Version: 6.00 Build 0)  -->
<svg version="1.1" id="Layer_1" xmlns="http://www.w3.org/2000/svg" xmlns:xlink="http://www.w3.org/1999/xlink" x="0px" y="0px"
	 width="983px" height="1097.29px" viewBox="0 0 983 1097.29" style="enable-background:new 0 0 983 1097.29;" xml:space="preserve"
	>
<style type="text/css">
	.st0{fill:#F97D93;}
	.st1{fill:#FADADD;}
	.st2{fill:#FFFFFF;}
</style>
<g>
	<g>
		<path class="st0" d="M572.22,1033.96c-31.46,4.14-62.42,6.49-93.52,5.17c-32.24-1.37-64.34-4.29-95.6-12.42
			c-25.64-6.67-51.76-12.32-76.46-21.39c-26.89-9.87-52.78-22.44-78.4-35.13c-45.06-22.31-82.85-53.83-117.1-88.96
			c-28.08-28.8-50.18-61.82-68.12-97.27c-12.15-24-21.58-48.97-27.83-74.88c-4.07-16.85-6.42-34.07-9.56-51.12
			c-6.96-37.76-5.68-75.84-1.93-113.59c3.46-34.79,12.22-68.83,25.43-101.71c15.06-37.5,34.6-72.7,58.72-105.56
			c34.17-46.55,75.64-86.13,124.47-119.03c29.36-19.78,60.23-36.89,93.37-49.64c26.18-10.08,53.54-17.56,80.72-25.03
			c13.53-3.72,27.8-5.24,41.85-7c11.17-1.4,20.96,3.33,29.86,9.05c18.04,11.6,35.73,23.67,53.58,35.52c1.77,1.18,3.69,2.16,6.9,2.19
			c-1.03-1.63-1.91-3.37-3.12-4.86c-18.65-22.81-41.86-40.61-67.96-55.07c-17.27-9.57-34.94-18.51-52.19-28.11
			c-8.58-4.77-15.65-15.31-10.87-24.35c2.46-4.67,5.57-8.03,10.91-7.25c11.71,1.7,23.72,2.98,34.87,6.52
			c35.77,11.37,69.5,26.98,99.7,48.63c13.52,9.69,25.69,21.07,38.5,31.67c1.45,1.2,3.04,2.26,6.1,2.68
			c-1.27-4.61-2.18-9.35-3.89-13.81c-6.88-17.94-17.53-33.6-31.97-46.94c-4-3.7-8.1-7.46-11.2-11.81
			c-2.31-3.24-3.94-7.39-4.32-11.27c-0.75-7.57,3.39-12.48,11.07-11.19c12.33,2.07,25.1,4.56,36.25,9.69
			c28.55,13.11,51.78,32.73,69,58.19c5.83,8.62,12.25,13.46,23.6,15.5c23.26,4.18,44.92,13.58,65.24,25.21
			c26.23,15.02,49.94,33.15,70.06,55.16c26.57,29.06,47.34,61.31,58.38,98.79c5.51,18.69,8.85,37.52,9.01,57.01
			c0.2,23.91-10.49,42.28-29.73,56.67c-20.33,15.2-43.46,24.73-68.8,29.26c-40.91,7.33-80.59,2.57-118.31-13.64
			c-56.37-24.22-97.95-63.56-126.54-115.51c-5.47-9.93-5.31-9.66-18.6-6.95c-34.12,6.96-62.05,23.32-83.46,49.47
			c-16.89,20.63-28.63,43.73-35.18,69.17c-0.54,2.11-1.22,4.2-1.96,6.25c-2.07,5.68-5.56,6.81-11.15,3.67
			c-12.44-6.98-24.85-14.07-37.67-20.38c-22.72-11.18-47.22-15.64-72.44-12.47c-23.78,2.99-45.46,11.7-62.1,29.06
			c-2.25,2.35-2.69,6.26-3.97,9.45c3.03,0.71,6.02,1.81,9.09,2.07c22.77,1.94,45.42,4.12,67.08,12c5.73,2.08,12.4,2.56,18.63,2.56
			c121.86,0.1,243.71,0.01,365.57-0.01c22.18,0,40.37,7.71,51.46,26.52c4.09,6.94,7.64,15.32,7.7,23.07
			c0.59,68.59,0.8,137.2,0.07,205.79c-0.24,22.25-11.26,40.31-33.15,49.95c-8.22,3.62-18.14,5.1-27.31,5.21
			c-46.65,0.51-93.3,0.4-139.95,0.11c-7.31-0.05-10.23,1.77-9.45,8.89c0.54,5.01,0,10.11,0.12,15.17
			c0.21,8.97,3.46,12.21,13.04,12.44c9.94,0.24,19.88,0.06,29.82,0.12c12.38,0.09,17.36,4.42,17.52,15.11
			c0.18,11.71-5.56,17.84-17.56,18.18c-9.42,0.27-18.86,0.08-28.3,0.08c-37.99,0-75.97,0.03-113.95-0.09
			c-3.75-0.01-7.67-0.42-11.21-1.53c-9.34-2.91-12.71-9.14-10.83-18.86c1.61-8.32,7.24-12.77,16.54-12.85
			c10.71-0.08,21.41,0.06,32.12-0.06c8.43-0.1,11.96-3.52,12.17-11.58c0.14-5.57-0.28-11.18,0.21-16.72
			c0.58-6.56-2.37-8.29-8.87-8.26c-43.08,0.23-86.17,0.39-129.25,0.06c-11.85-0.09-24.17-0.3-35.43-3.31
			c-26.22-7.03-38.87-30.23-39.06-53.92c-0.44-55.75-0.13-111.5-0.13-167.25c0-9.32-0.02-9.36-10.06-9.37
			c-20.9-0.03-41.81,0.19-62.71-0.11c-6.81-0.1-9.84,2.33-10.15,8.69c-0.84,17.38-2.96,34.78-2.64,52.14
			c1.23,65.13,22.09,123.71,67.31,173.4c18.36,20.18,40.41,36.39,63.74,51.24c29.42,18.71,61.35,32.11,95.23,40.75
			c21.2,5.41,43.16,9.18,65.02,10.95c22.71,1.84,45.89,2.05,68.55-0.08c23.02-2.16,45.76-7.58,68.42-12.43
			c28.9-6.18,55.88-17.56,81.69-31c26.48-13.8,51.3-30.06,73.87-49.42c44.07-37.8,76.47-83.41,101.06-134.34
			c14.3-29.62,24.55-60.58,34.08-91.88c7.88-25.88,17.03-51.55,27.95-76.38c4.78-10.86,14.38-20.4,23.61-28.74
			c11.6-10.48,30.06-7.21,39.28,7.11c6.78,10.53,12.3,22.32,15.6,34.24c11.59,41.89,11.4,84.73,7.68,127.49
			c-3.96,45.44-15.22,89.23-34.15,131.38C923,819.2,891.71,864.65,849.8,903.32c-25.37,23.41-52.25,45.27-82.93,62.13
			c-30.46,16.74-61.42,32.62-94.9,43.74c-30.72,10.2-61.68,19.03-93.99,23.23C576.24,1032.64,574.56,1033.31,572.22,1033.96z
			 M259.87,702.64c0,12.6-0.03,25.2,0.01,37.81c0.04,12.17,9.27,21.07,21.98,21.07c127.95,0.02,255.9,0.02,383.85,0
			c12.11,0,20.95-7.84,21.13-19.18c0.5-30.69,0.85-61.37,1.1-92.06c0.13-16.91,0.01-33.81-0.14-50.72
			c-0.22-23.84-0.58-47.69-0.88-71.53c-0.17-13.5-8.05-20.98-22.46-20.98c-127.44-0.03-254.88-0.03-382.32,0
			c-13.81,0-22.26,8.14-22.26,21.1C259.86,585.83,259.87,643.51,259.87,702.64z M908.43,657.4
			c-24.75,79.21-71.47,145.49-133.72,203.28c12.99,1.6,51.75-30.49,84.17-68.37c34.42-40.22,71.74-144.36,61.14-174.2
			C915.93,631.8,912.28,644.02,908.43,657.4z M453.19,258.39c-4.2-0.93-8.35-2.35-12.6-2.71c-29.61-2.45-57.55,3.13-83.36,17.13
			c-14.35,7.79-28.13,16.64-36.56,30.74c-1.97,3.3-3.47,9.89-1.67,11.57c4.14,3.87,9.33,0.76,13.4-2.47
			c2.33-1.85,4.43-4.03,6.94-5.62c10.7-6.78,21.03-14.29,32.39-19.89c27.5-13.54,57.03-19.5,88.05-18.64
			c2.59,0.07,5.2-0.55,7.8-0.85c0.29-0.97,0.58-1.94,0.88-2.9C463.78,262.69,459.1,260.62,453.19,258.39z M397.89,212.89
			c4.25-0.63,8.49-1.45,12.76-1.87c25.82-2.56,51.12-0.44,75.81,7.55c7.75,2.5,15.67,4.52,23.51,6.76c0.39-0.62,0.78-1.25,1.17-1.87
			c-1.63-1.94-2.98-4.2-4.94-5.78c-14.04-11.34-30.69-17.7-48.34-21.6c-23.55-5.2-47.45-6.16-70.82,0.13
			c-11.5,3.09-22.23,8.86-33.08,13.86c-1.54,0.71-2.9,4.28-2.34,5.9c0.61,1.77,3.37,3.4,5.53,4.02c2.01,0.57,4.5-0.1,6.72-0.52
			C374.76,217.4,385.64,215.21,397.89,212.89z M743.1,391.76c20.65-4.86,29.69-10.09,29.85-17.53c-20.72,5.33-40.97,3.81-61.05-3.02
			c-16.56-5.64-29.2-16.14-41.18-27.82c-1.9-1.85-5.53-2.11-8.35-3.1c-0.19,2.9-1.56,6.4-0.34,8.59c3.9,6.95,7.81,14.27,13.43,19.89
			C693.38,386.69,716.06,393.53,743.1,391.76z"/>
		<path class="st1" d="M259.87,701.91c0-58.4-0.01-116.08,0-173.76c0-12.96,8.44-21.1,22.26-21.1c127.44-0.04,254.88-0.03,382.32,0
			c14.41,0,22.29,7.48,22.46,20.98c0.31,23.84,0.66,47.68,0.88,71.53c0.16,16.91,0.28,33.81,0.14,50.72
			c-0.24,30.69-0.59,61.38-1.1,92.06c-0.19,11.34-9.02,19.18-21.13,19.18c-127.95,0.02-255.9,0.02-383.85,0
			c-12.7,0-21.93-8.9-21.98-21.07C259.84,727.84,259.87,715.24,259.87,701.91z"/>
	</g>
</g>
</svg>
