<?xml version="1.0" encoding="utf-8"?>
<!-- Generator: Adobe Adobe Illustrator 29.2.0, SVG Export Plug-In . SVG Version: 6.00 Build 0)  -->
<svg version="1.1" id="Layer_1" xmlns="http://www.w3.org/2000/svg" xmlns:xlink="http://www.w3.org/1999/xlink" x="0px" y="0px"
   width="983px" height="1097.29px" viewBox="0 0 983 1097.29" style="enable-background:new 0 0 983 1097.29;" xml:space="preserve"
  >
<style type="text/css">
  .st0{fill:#FFFFFF;}
  .st1{fill:#FC8096;}
</style>
<path class="st1" d="M321.58,783.72c-2.03,0.28-2.02,5.74,0,6.03C323.61,789.48,323.6,784.01,321.58,783.72z"/>
<g>
  <g>
    <path class="st0" d="M974.41,511.28c-3.3-11.92-8.82-23.72-15.6-34.24c-9.22-14.32-27.68-17.59-39.28-7.11
      c-9.22,8.33-18.83,17.88-23.61,28.74c-10.92,24.83-20.07,50.5-27.95,76.38c-9.53,31.3-19.78,62.26-34.08,91.88
      c-24.59,50.93-56.99,96.54-101.06,134.34c-22.57,19.36-47.39,35.62-73.87,49.42c-25.81,13.45-52.79,24.82-81.69,31
      c-22.66,4.85-45.4,10.27-68.42,12.43c-22.66,2.13-45.83,1.92-68.55,0.08c-21.86-1.77-87.26,1.51-80.06-19.16
      c12.11-34.74,15.74-64.61,12.23-83.87c21.98-0.02,43.96-0.12,65.94-0.24c6.5-0.03,9.45,1.7,8.87,8.26
      c-0.49,5.54-0.06,11.14-0.21,16.72c-0.21,8.06-3.74,11.49-12.17,11.58c-10.71,0.13-21.41-0.02-32.12,0.06
      c-9.29,0.07-14.93,4.52-16.54,12.85c-1.88,9.71,1.49,15.94,10.83,18.85c3.54,1.1,7.46,1.52,11.21,1.53
      c37.98,0.11,75.97,0.08,113.95,0.09c9.43,0,18.87,0.19,28.3-0.08c11.99-0.34,17.73-6.47,17.56-18.18
      c-0.16-10.69-5.14-15.02-17.52-15.11c-9.94-0.07-19.89,0.12-29.82-0.12c-9.57-0.23-12.82-3.47-13.04-12.44
      c-0.12-5.06,0.42-10.16-0.12-15.17c-0.77-7.11,2.14-8.93,9.45-8.89c46.65,0.29,93.3,0.41,139.95-0.11
      c9.17-0.1,19.09-1.58,27.31-5.21c21.89-9.64,32.92-27.71,33.15-49.95c0.73-68.59,0.52-137.19-0.07-205.79
      c-0.07-7.75-3.61-16.13-7.7-23.07c-11.08-18.82-29.28-26.53-51.46-26.52c-121.86,0.03-243.71,0.11-365.57,0.01
      c-6.24,0-12.9-0.48-18.63-2.56c-21.66-7.88-44.31-10.06-67.08-12c-3.07-0.26-7.66,0.69-9.09-2.07c-1.58-3.05,1.72-7.1,3.97-9.45
      c16.64-17.36,38.32-26.06,62.1-29.06c25.22-3.18,49.72,1.29,72.44,12.47c12.82,6.31,25.23,13.4,37.67,20.38
      c5.59,3.13,9.08,2.01,11.15-3.67c0.75-2.05,1.42-4.14,1.96-6.25c6.55-25.44,18.29-48.55,35.18-69.17
      c21.4-26.14,49.33-42.5,83.46-49.47c13.29-2.71,13.14-2.98,18.6,6.95c28.59,51.95,70.17,91.3,126.54,115.51
      c37.72,16.21,77.4,20.96,118.31,13.64c25.34-4.54,48.47-14.06,68.8-29.26c19.24-14.39,29.93-32.75,29.73-56.67
      c-0.16-19.49-3.5-38.32-9.01-57.01c-11.04-37.48-31.8-69.72-58.38-98.79c-20.12-22.01-43.83-40.14-70.06-55.16
      c-20.32-11.63-41.98-21.03-65.24-25.21c-11.35-2.04-17.77-6.88-23.6-15.5c-17.21-25.46-40.44-45.08-69-58.19
      c-11.16-5.12-23.92-7.62-36.25-9.69c-7.68-1.29-11.82,3.62-11.07,11.19c0.39,3.88,2.02,8.04,4.32,11.27
      c3.1,4.35,7.2,8.11,11.2,11.81c14.44,13.34,25.09,29,31.97,46.94c1.71,4.46,7.04,10.22,3.89,13.81c-2.04,2.32-4.65-1.48-6.1-2.68
      c-12.8-10.59-24.98-21.98-38.5-31.67c-30.2-21.65-63.94-37.26-99.7-48.63c-11.15-3.54-23.16-4.82-34.87-6.52
      c-5.33-0.77-8.44,2.59-10.91,7.25c-4.77,9.04,2.29,19.57,10.87,24.35c17.25,9.6,34.92,18.54,52.19,28.11
      c26.1,14.46,49.31,32.26,67.96,55.07c1.22,1.49,4.06,3.18,3.12,4.86c-1.56,2.81-5.13-1.01-6.9-2.19
      c-17.86-11.85-35.55-23.93-53.58-35.52c-8.9-5.72-18.69-10.45-29.86-9.05c-14.04,1.76-28.31,3.28-41.85,7
      c-27.19,7.47-54.54,14.96-80.72,25.03c-33.14,12.76-64.01,29.87-93.37,49.64c-48.83,32.9-90.3,72.48-124.47,119.03
      c-24.13,32.86-43.66,68.07-58.72,105.56C17.92,477.54,9.16,511.58,5.7,546.37c-3.75,37.75-5.03,75.83,1.93,113.59
      c3.14,17.05,5.5,34.27,9.56,51.12c6.25,25.91,15.68,50.88,27.83,74.88c17.94,35.45,40.04,68.47,68.12,97.27
      c34.25,35.13,72.04,66.65,117.1,88.96c25.62,12.69,51.51,25.26,78.4,35.13c24.7,9.07,50.83,14.73,76.46,21.39
      c31.26,8.13,63.37,11.05,95.6,12.42c31.11,1.32,62.43,1.17,93.52-5.17c2.38-0.49,4.02-1.33,5.76-1.55
      c32.3-4.19,63.27-13.03,93.99-23.23c33.48-11.12,64.45-27,94.9-43.74c30.67-16.86,57.55-38.72,82.93-62.13
      c41.92-38.67,73.2-84.11,96.14-135.18c18.93-42.15,30.19-85.94,34.15-131.38C985.81,596.01,986,553.17,974.41,511.28z
       M664.37,342.29c2.5-1.65,6.45,1.25,8.35,3.1c11.97,11.69,24.62,22.19,41.18,27.82c20.08,6.84,44.29-10.27,61.05,3.02
      c5.83,4.62-8.87,14.39-29.85,17.53c-26.8,4-49.72-5.07-67.64-22.99c-5.62-5.63-9.53-12.94-13.43-19.89
      C662.81,348.69,661.95,343.89,664.37,342.29z M412.24,352.03c-5.87,4.41-12.1,8.28-18.13,12.45
      c-10.52,7.85-16.05,12.18-24.76,20.85c-2.82,2.73-5.61,5.51-8.01,8.62c0.59-2.04,1.22-4.08,1.91-6.09
      c7.31-21.61,21.04-41.93,41.12-53.44c17.09-9.37,36.26-14.85,55.57-17.12C443.73,328.44,428.25,340.6,412.24,352.03z
       M355.94,212.08c10.85-5,21.59-10.77,33.08-13.86c23.38-6.3,47.27-5.33,70.82-0.13c17.65,3.9,34.3,10.25,48.34,21.6
      c1.96,1.58,4.76,3.25,4.94,5.78c0.05,0.73-0.48,1.61-1.17,1.87c-7.61,2.93-15.76-4.25-23.51-6.76
      c-24.69-7.99-49.99-10.11-75.81-7.55c-4.28,0.42-8.52,1.15-12.76,1.87c-12.29,2.08-23.13,4.5-34.04,6.58
      c-2.22,0.42-4.71,1.09-6.72,0.52c-2.16-0.62-4.91-2.25-5.53-4.02C353.04,216.35,354.41,212.78,355.94,212.08z M322.68,305.56
      c8.43-14.1,22.21-22.96,36.56-30.74c25.8-14,53.75-19.59,83.36-17.13c4.25,0.35,8.48,1.48,12.6,2.71
      c6.05,1.8,13.13,1.72,15.27,6.37c0.42,0.92-0.1,2.26-0.88,2.9c-2.01,1.68-5.21,0.92-7.8,0.85c-31.02-0.86-60.55,5.1-88.05,18.64
      c-11.36,5.6-21.69,13.11-32.39,19.89c-2.51,1.59-4.6,3.77-6.94,5.62c-4.07,3.23-9.26,6.34-13.4,2.47
      C319.2,315.45,320.71,308.86,322.68,305.56z M259.87,528.15c0-12.96,8.44-21.1,22.26-21.1c127.44-0.04,254.88-0.03,382.32,0
      c8.16,0,14.22,2.41,17.98,6.94c4.16,3.56,6.39,8.96,6.48,16.05c0.31,23.84,0.66,47.68,0.88,71.53
      c0.16,16.91,0.28,33.81,0.14,50.72c-0.24,30.69-0.59,61.38-1.1,92.06c-0.19,11.34-9.02,19.18-21.13,19.18
      c-127.95,0.02-255.9,0.02-383.85,0c-7.13,0-13.16-2.8-17.09-7.41c-4.28-3.77-6.86-9.26-6.89-15.66
      c-0.05-12.6-0.01-25.2-0.01-38.53C259.87,643.51,259.86,585.83,259.87,528.15z M280.05,842.49c-7.36,12.32-29.07-9.95-63.74-51.24
      c-43.21-51.46-66.08-108.28-67.31-173.4c-0.33-17.36,1.79-34.75,2.64-52.14c0.31-6.36,3.34-8.79,10.15-8.69
      c20.9,0.29,41.81,0.08,62.71,0.11c10.04,0.01,10.06,0.05,10.06,9.37c0,55.75-0.31,111.5,0.13,167.25
      c0.19,23.7,12.84,46.89,39.06,53.92c11.26,3.02,23.58,3.22,35.43,3.31c2.57,0.02,5.15,0.02,7.72,0.04
      C305.93,802.93,293.59,819.82,280.05,842.49z M860.88,794.31c-32.43,37.88-80.15,80.82-84.17,68.37
      c-26.14-80.82,109.9-123.79,133.72-203.28c4-13.34-2.69-38.93,11.59-39.29C953.68,619.31,895.31,754.09,860.88,794.31z"/>
  </g>
</g>
</svg>
